<svg width="80" height="80" viewBox="0 0 80 80" fill="none" xmlns="http://www.w3.org/2000/svg">
<path fill-rule="evenodd" clip-rule="evenodd" d="M47.43 40.98C47.47 40.66 47.5 40.34 47.5 40C47.5 39.66 47.47 39.34 47.43 39.02L49.54 37.37C49.73 37.22 49.78 36.95 49.66 36.73L47.66 33.27C47.57 33.11 47.4 33.02 47.22 33.02C47.16 33.02 47.1 33.03 47.05 33.05L44.56 34.05C44.04 33.65 43.48 33.32 42.87 33.07L42.49 30.42C42.46 30.18 42.25 30 42 30H38C37.75 30 37.54 30.18 37.51 30.42L37.13 33.07C36.52 33.32 35.96 33.66 35.44 34.05L32.95 33.05C32.89 33.03 32.83 33.02 32.77 33.02C32.6 33.02 32.43 33.11 32.34 33.27L30.34 36.73C30.21 36.95 30.27 37.22 30.46 37.37L32.57 39.02C32.53 39.34 32.5 39.67 32.5 40C32.5 40.33 32.53 40.66 32.57 40.98L30.46 42.63C30.27 42.78 30.22 43.05 30.34 43.27L32.34 46.73C32.43 46.89 32.6 46.98 32.78 46.98C32.84 46.98 32.9 46.97 32.95 46.95L35.44 45.95C35.96 46.35 36.52 46.68 37.13 46.93L37.51 49.58C37.54 49.82 37.75 50 38 50H42C42.25 50 42.46 49.82 42.49 49.58L42.87 46.93C43.48 46.68 44.04 46.34 44.56 45.95L47.05 46.95C47.11 46.97 47.17 46.98 47.23 46.98C47.4 46.98 47.57 46.89 47.66 46.73L49.66 43.27C49.78 43.05 49.73 42.78 49.54 42.63L47.43 40.98ZM45.45 39.27C45.49 39.58 45.5 39.79 45.5 40C45.5 40.21 45.48 40.43 45.45 40.73L45.31 41.86L46.2 42.56L47.28 43.4L46.58 44.61L45.31 44.1L44.27 43.68L43.37 44.36C42.94 44.68 42.53 44.92 42.12 45.09L41.06 45.52L40.9 46.65L40.7 48H39.3L39.11 46.65L38.95 45.52L37.89 45.09C37.46 44.91 37.06 44.68 36.66 44.38L35.75 43.68L34.69 44.11L33.42 44.62L32.72 43.41L33.8 42.57L34.69 41.87L34.55 40.74C34.52 40.43 34.5 40.2 34.5 40C34.5 39.8 34.52 39.57 34.55 39.27L34.69 38.14L33.8 37.44L32.72 36.6L33.42 35.39L34.69 35.9L35.73 36.32L36.63 35.64C37.06 35.32 37.47 35.08 37.88 34.91L38.94 34.48L39.1 33.35L39.3 32H40.69L40.88 33.35L41.04 34.48L42.1 34.91C42.53 35.09 42.93 35.32 43.33 35.62L44.24 36.32L45.3 35.89L46.57 35.38L47.27 36.59L46.2 37.44L45.31 38.14L45.45 39.27ZM40 36C37.79 36 36 37.79 36 40C36 42.21 37.79 44 40 44C42.21 44 44 42.21 44 40C44 37.79 42.21 36 40 36ZM40 42C38.9 42 38 41.1 38 40C38 38.9 38.9 38 40 38C41.1 38 42 38.9 42 40C42 41.1 41.1 42 40 42Z" fill="#9A9AB0"/>
</svg>
