<svg width="18" height="20" viewBox="0 0 18 20" fill="none" xmlns="http://www.w3.org/2000/svg">
<path d="M6 6H3.275C4.12474 4.77696 5.34303 3.85743 6.75216 3.37554C8.16129 2.89365 9.68753 2.87461 11.1082 3.3212C12.529 3.76779 13.7698 4.65664 14.6498 5.8581C15.5298 7.05955 16.0028 8.51075 16 10H18C18.0009 8.13849 17.4245 6.32252 16.3503 4.80224C15.2761 3.28195 13.7569 2.13217 12.002 1.51126C10.2471 0.890354 8.3428 0.828883 6.55151 1.33531C4.76022 1.84175 3.17003 2.89116 2 4.339V2H0V8H6V6Z" fill="#9A9AB0"/>
<path d="M12 14H14.725C13.8753 15.223 12.657 16.1426 11.2478 16.6245C9.83871 17.1063 8.31247 17.1254 6.89176 16.6788C5.47105 16.2322 4.2302 15.3434 3.35021 14.1419C2.47023 12.9404 1.99716 11.4892 2 10H9.55917e-07C-0.00085677 11.8615 0.575521 13.6775 1.64974 15.1978C2.72395 16.718 4.24315 17.8678 5.99805 18.4887C7.75295 19.1096 9.6572 19.1711 11.4485 18.6647C13.2398 18.1583 14.83 17.1088 16 15.661V18H18V12H12V14Z" fill="#9A9AB0"/>
</svg>
